<svg xmlns="http://www.w3.org/2000/svg" xmlns:xlink="http://www.w3.org/1999/xlink">
  <symbol viewBox="0 -960 960 960" id="rub"><path d="M280-120v-120h-80v-80h80v-80h-80v-80h80v-360h260q92 0 156 64t64 156q0 92-64 156t-156 64H360v80h160v80H360v120h-80Zm80-360h180q58 0 99-41t41-99q0-58-41-99t-99-41H360v280Z"/></symbol>
  <symbol viewBox="0 -960 960 960" id="euro"><path d="M600-120q-118 0-210-67T260-360H120v-80h122q-3-24-2.5-44.5T242-520H120v-80h140q38-106 130-173t210-67q69 0 130.5 24.5T840-748l-57 56q-37-32-83.5-50T600-760q-85 0-152 44.5T347-600h253v80H323q-4 27-3 47.5t3 32.5h277v80H347q34 71 101 115.5T600-200q53 0 99.5-18t83.5-50l57 56q-48 43-109.5 67.5T600-120Z"/></symbol>
  <symbol viewBox="0 -960 960 960" id="usd"><path d="M441-120v-86q-53-12-91.5-46T293-348l74-30q15 48 44.5 73t77.5 25q41 0 69.5-18.5T587-356q0-35-22-55.5T463-458q-86-27-118-64.5T313-614q0-65 42-101t86-41v-84h80v84q50 8 82.5 36.5T651-650l-74 32q-12-32-34-48t-60-16q-44 0-67 19.5T393-614q0 33 30 52t104 40q69 20 104.5 63.5T667-358q0 71-42 108t-104 46v84h-80Z"/></symbol>
</svg>
